<svg width="24" height="24" viewBox="0 0 24 24" fill="none" xmlns="http://www.w3.org/2000/svg">
<path fill-rule="evenodd" clip-rule="evenodd" d="M8.6026 4.07186C10.1677 1.55417 13.8318 1.55417 15.3969 4.07186L21.4996 13.8893C23.156 16.5539 21.2399 20.0011 18.1025 20.0011H5.89699C2.75962 20.0011 0.843525 16.5539 2.49985 13.8893L8.6026 4.07186ZM12.01 6.55681C12.7832 6.55681 13.41 7.18361 13.41 7.95681V11.5144C13.41 12.2876 12.7832 12.9144 12.01 12.9144C11.2368 12.9144 10.61 12.2876 10.61 11.5144V7.95681C10.61 7.18361 11.2368 6.55681 12.01 6.55681ZM10.35 15.7955C10.35 14.8843 11.0887 14.1455 12 14.1455C12.9113 14.1455 13.65 14.8843 13.65 15.7955C13.65 16.7068 12.9113 17.4455 12 17.4455C11.0887 17.4455 10.35 16.7068 10.35 15.7955Z" fill="black"/>
</svg>
